<?xml version="1.0" encoding="utf-8"?>
<!-- Generator: Adobe Illustrator 24.0.2, SVG Export Plug-In . SVG Version: 6.00 Build 0)  -->
<svg version="1.1" id="Layer_1" xmlns="http://www.w3.org/2000/svg" xmlns:xlink="http://www.w3.org/1999/xlink" x="0px" y="0px"
	 viewBox="0 0 512 512" style="enable-background:new 0 0 512 512;" xml:space="preserve">
<style type="text/css">
	.st0{fill:none;}
	.st1{fill:none;stroke:#000000;stroke-width:7;stroke-miterlimit:10;}
</style>
<g>
	<path class="st0" d="M427.05,206.68"/>
</g>
<g>
	<path class="st0" d="M253.26,253.24"/>
</g>
<g>
	<path class="st0" d="M427.05,299.81"/>
</g>
<g>
	<path class="st0" d="M253.26,253.24"/>
</g>
<g>
	<path class="st0" d="M433.18,253.24"/>
</g>
<g>
	<path class="st0" d="M253.26,253.24"/>
</g>
<g>
	<path class="st0" d="M430.25,221.24"/>
</g>
<g>
	<g>
		<path class="st1" d="M477.52,441.34C454.1,476.69,413.96,500,368.39,500c-72.25,0-130.81-58.57-130.81-130.81
			s58.57-130.81,130.81-130.81c45.1,0,84.87,22.82,108.39,57.55"/>
		<g>
			<path d="M494.84,402.81c-15.11,14.88-36.96,31.88-55.51,40.08l35.26,3.21l25.04,25.01C494.03,451.61,493.09,423.94,494.84,402.81
				z"/>
		</g>
		<g>
			<path d="M494.49,334.26c-15.26-14.72-37.28-31.5-55.92-39.51l35.22-3.57l24.78-25.27C493.18,285.47,492.52,313.15,494.49,334.26z
				"/>
		</g>
	</g>
</g>
<g>
	<g>
		<path class="st1" d="M453.95,406.88c-25.59,41.51-71.47,69.17-123.81,69.17c-80.27,0-145.35-65.08-145.35-145.35
			s65.08-145.35,145.35-145.35c51.81,0,97.29,27.11,123.03,67.92"/>
		<g>
			<path d="M470.64,368.06c-14.84,15.15-36.38,32.54-54.78,41.07l35.31,2.57l25.49,24.56C470.71,416.87,469.27,389.22,470.64,368.06
				z"/>
		</g>
		<g>
			<path d="M470.25,291.89c-14.99-14.99-36.71-32.17-55.2-40.51l35.28-2.93l25.24-24.82C469.82,243.09,468.67,270.75,470.25,291.89z
				"/>
		</g>
	</g>
</g>
<g>
	<g>
		<path class="st1" d="M431.92,372.78c-27.9,48.37-80.15,80.93-140,80.93c-89.19,0-161.5-72.31-161.5-161.5s72.31-161.5,161.5-161.5
			c59.27,0,111.07,31.92,139.17,79.51"/>
		<g>
			<path d="M448.04,333.73c-14.58,15.39-35.84,33.14-54.1,41.97l35.35,1.99l25.89,24.14C448.91,382.53,447.02,354.9,448.04,333.73z"
				/>
		</g>
		<g>
			<path d="M447.6,249.09c-14.75-15.24-36.18-32.76-54.54-41.4l35.32-2.36l25.64-24.41C447.97,200.29,446.36,227.93,447.6,249.09z"
				/>
		</g>
	</g>
</g>
<g>
	<g>
		<path class="st1" d="M391.18,305.41c-32.75,63.67-99.11,107.22-175.63,107.22c-109.01,0-197.39-88.37-197.39-197.39
			S106.53,17.85,215.55,17.85c75.8,0,141.63,42.73,174.7,105.42"/>
		<g>
			<path d="M406.36,265.98c-14.19,15.76-34.98,34.04-53.01,43.34l35.39,1.09l26.5,23.47C408.48,314.74,405.87,287.17,406.36,265.98z
				"/>
		</g>
		<g>
			<path d="M405.83,162.54c-14.35-15.61-35.33-33.68-53.45-42.79l35.37-1.45L414,94.56C407.45,113.76,405.13,141.35,405.83,162.54z"
				/>
		</g>
	</g>
</g>
<g>
	<g>
		<path class="st1" d="M411.6,339.12c-30.36,56.01-89.67,94.05-157.86,94.05c-99.1,0-179.44-80.34-179.44-179.44
			S154.63,74.28,253.74,74.28c67.54,0,126.37,37.31,156.99,92.45"/>
		<g>
			<path d="M427.2,299.85c-14.37,15.59-35.38,33.63-53.51,42.71l35.37,1.5l26.22,23.78C428.75,348.63,426.47,321.04,427.2,299.85z"
				/>
		</g>
		<g>
			<path d="M426.71,205.82c-14.53-15.44-35.73-33.26-53.96-42.15l35.35-1.87l25.97-24.05C427.76,157.02,425.76,184.64,426.71,205.82
				z"/>
		</g>
	</g>
</g>
</svg>
